<svg width="160" height="32" viewBox="0 0 160 32" fill="none" xmlns="http://www.w3.org/2000/svg">
<rect width="32" height="32" rx="8" fill="#EEF2FF"/>
<path d="M16 6L8 11V21L16 26L24 21V11L16 6Z" stroke="#465FFF" stroke-width="1.5" stroke-linejoin="round"/>
<path d="M16 6V26" stroke="#465FFF" stroke-width="1.5" stroke-linecap="round"/>
<path d="M8 11L16 16L24 11" stroke="#465FFF" stroke-width="1.5" stroke-linecap="round" stroke-linejoin="round"/>
<path d="M8 21L16 16" stroke="#465FFF" stroke-width="1.5" stroke-linecap="round"/>
<path d="M24 21L16 16" stroke="#465FFF" stroke-width="1.5" stroke-linecap="round"/>
<path d="M44 24V8H47.2L51.5 18.5L55.8 8H59V24H56.3V13.2L52.4 22.5H50.6L46.7 13.2V24H44Z" fill="#101828"/>
<path d="M69.5 24H66.8V22.8C66 23.7 64.8 24.3 63.3 24.3C60.8 24.3 59.2 22.8 59.2 20.5V13H61.9V19.8C61.9 21.3 62.8 22 64.1 22C65.5 22 66.6 21.1 66.6 19.5V13H69.5V24Z" fill="#101828"/>
<path d="M72 24V8H74.7V24H72Z" fill="#101828"/>
<path d="M80.5 24.3C78.3 24.3 77 23 77 21.1V15.3H75V13H77V9.5H79.7V13H83V15.3H79.7V20.6C79.7 21.6 80.2 22 81.1 22C81.7 22 82.3 21.8 82.8 21.5V23.8C82.1 24.1 81.3 24.3 80.5 24.3Z" fill="#101828"/>
<path d="M84.5 10.8C84.5 9.9 85.2 9.2 86.1 9.2C87 9.2 87.7 9.9 87.7 10.8C87.7 11.7 87 12.4 86.1 12.4C85.2 12.4 84.5 11.7 84.5 10.8ZM84.7 24V13H87.4V24H84.7Z" fill="#101828"/>
<path d="M96.5 20.2C96.5 22.6 94.6 24.3 91.8 24.3C89.2 24.3 87.3 22.9 87.1 20.7H89.8C89.9 21.6 90.7 22.1 91.9 22.1C93 22.1 93.7 21.6 93.7 20.9C93.7 20.2 93.1 19.9 91.7 19.6L90.5 19.4C88.2 18.9 87.1 17.9 87.1 16.1C87.1 14 89 12.7 91.5 12.7C94.1 12.7 95.8 14.1 96 16.1H93.3C93.2 15.3 92.5 14.8 91.5 14.8C90.5 14.8 89.8 15.3 89.8 15.9C89.8 16.5 90.3 16.8 91.6 17.1L92.8 17.3C95.2 17.8 96.5 18.7 96.5 20.2Z" fill="#101828"/>
<path d="M106 24H103.3V22.5C102.5 23.6 101.2 24.3 99.6 24.3C97.1 24.3 95 22.3 95 18.7C95 15.1 97.1 12.7 99.9 12.7C101.4 12.7 102.6 13.4 103.3 14.4V13H106V24ZM100.5 22C102.2 22 103.4 20.6 103.4 18.6C103.4 16.6 102.2 15.1 100.5 15.1C98.8 15.1 97.7 16.5 97.7 18.6C97.7 20.6 98.8 22 100.5 22Z" fill="#101828"/>
<path d="M115.5 13H118.3L114 24H111.2L107 13H110L112.6 21.2L115.5 13Z" fill="#101828"/>
<path d="M127 19.3H120.2C120.4 21 121.5 22 123 22C124.1 22 124.9 21.5 125.3 20.7H128.1C127.4 22.9 125.4 24.3 122.9 24.3C119.7 24.3 117.4 21.9 117.4 18.5C117.4 15.1 119.7 12.7 122.8 12.7C126 12.7 128.2 15.2 128.2 18.5C128.2 18.8 128.2 19.1 127 19.3ZM120.3 17.3H125.3C125.1 15.8 124.1 14.9 122.8 14.9C121.5 14.9 120.5 15.8 120.3 17.3Z" fill="#101828"/>
</svg>
